STARTFONT 2.1
COMMENT Cyrillic letters added by Eugene Bobin
COMMENT <gene@ftim.ustu.ru>
COMMENT Also changed digits - now looks like watch digits.
FONT -Sun-Screen-Medium-R-Normal--12-120-72-72-M-70-koi8-r
SIZE 12 72 72
FONTBOUNDINGBOX 7 14 0 -4
STARTPROPERTIES 22
FONTNAME_REGISTRY ""
FOUNDRY "Sun"
FAMILY_NAME "Screen"
WEIGHT_NAME "Medium"
SLANT "R"
SETWIDTH_NAME "Normal"
ADD_STYLE_NAME ""
PIXEL_SIZE 12
POINT_SIZE 120
RESOLUTION_X 72
RESOLUTION_Y 72
SPACING "M"
AVERAGE_WIDTH 70
CHARSET_REGISTRY "KOI8"
CHARSET_ENCODING "r"
WEIGHT 10
RESOLUTION 99
X_HEIGHT -1
QUAD_WIDTH 7
FONT_ASCENT 10
FONT_DESCENT 4
_XMBDFED_INFO "Edited with xmbdfed 2.0."
ENDPROPERTIES
CHARS 228
STARTCHAR char130
ENCODING 11
SWIDTH 583 0
DWIDTH 7 0
BBX 4 7 0 3
BITMAP
10
10
10
10
10
10
F0
ENDCHAR
STARTCHAR char130
ENCODING 12
SWIDTH 583 0
DWIDTH 7 0
BBX 4 8 0 -4
BITMAP
F0
10
10
10
10
10
10
10
ENDCHAR
STARTCHAR char130
ENCODING 13
SWIDTH 583 0
DWIDTH 7 0
BBX 4 8 3 -4
BITMAP
F0
80
80
80
80
80
80
80
ENDCHAR
STARTCHAR char130
ENCODING 14
SWIDTH 583 0
DWIDTH 7 0
BBX 4 7 3 3
BITMAP
80
80
80
80
80
80
F0
ENDCHAR
STARTCHAR char130
ENCODING 15
SWIDTH 583 0
DWIDTH 7 0
BBX 7 14 0 -4
BITMAP
10
10
10
10
10
10
FE
10
10
10
10
10
10
10
ENDCHAR
STARTCHAR char128
ENCODING 16
SWIDTH 583 0
DWIDTH 7 0
BBX 7 1 0 9
BITMAP
FE
ENDCHAR
STARTCHAR char128
ENCODING 17
SWIDTH 583 0
DWIDTH 7 0
BBX 7 1 0 6
BITMAP
FE
ENDCHAR
STARTCHAR char128
ENCODING 18
SWIDTH 583 0
DWIDTH 7 0
BBX 7 1 0 3
BITMAP
FE
ENDCHAR
STARTCHAR char128
ENCODING 19
SWIDTH 583 0
DWIDTH 7 0
BBX 7 1 0 0
BITMAP
FE
ENDCHAR
STARTCHAR char128
ENCODING 20
SWIDTH 583 0
DWIDTH 7 0
BBX 7 1 0 -4
BITMAP
FE
ENDCHAR
STARTCHAR char130
ENCODING 21
SWIDTH 583 0
DWIDTH 7 0
BBX 4 14 3 -4
BITMAP
80
80
80
80
80
80
F0
80
80
80
80
80
80
80
ENDCHAR
STARTCHAR char130
ENCODING 22
SWIDTH 583 0
DWIDTH 7 0
BBX 4 14 0 -4
BITMAP
10
10
10
10
10
10
F0
10
10
10
10
10
10
10
ENDCHAR
STARTCHAR char130
ENCODING 23
SWIDTH 583 0
DWIDTH 7 0
BBX 7 7 0 3
BITMAP
10
10
10
10
10
10
FE
ENDCHAR
STARTCHAR char130
ENCODING 24
SWIDTH 583 0
DWIDTH 7 0
BBX 7 8 0 -4
BITMAP
FE
10
10
10
10
10
10
10
ENDCHAR
STARTCHAR char129
ENCODING 25
SWIDTH 583 0
DWIDTH 7 0
BBX 1 14 3 -4
BITMAP
80
80
80
80
80
80
80
80
80
80
80
80
80
80
ENDCHAR
STARTCHAR char32
ENCODING 32
SWIDTH 583 0
DWIDTH 7 0
BBX 0 0 0 0
BITMAP
ENDCHAR
STARTCHAR char33
ENCODING 33
SWIDTH 583 0
DWIDTH 7 0
BBX 1 10 3 -1
BITMAP
80
80
80
80
80
80
80
00
00
80
ENDCHAR
STARTCHAR char34
ENCODING 34
SWIDTH 583 0
DWIDTH 7 0
BBX 4 4 1 5
BITMAP
90
90
90
90
ENDCHAR
STARTCHAR char35
ENCODING 35
SWIDTH 583 0
DWIDTH 7 0
BBX 7 10 0 -1
BITMAP
24
24
24
7E
24
48
FC
48
48
48
ENDCHAR
STARTCHAR char36
ENCODING 36
SWIDTH 583 0
DWIDTH 7 0
BBX 5 11 1 -2
BITMAP
20
70
A8
A0
A0
70
28
28
A8
70
20
ENDCHAR
STARTCHAR char37
ENCODING 37
SWIDTH 583 0
DWIDTH 7 0
BBX 7 10 0 -1
BITMAP
64
94
98
68
10
10
2C
32
52
4C
ENDCHAR
STARTCHAR char38
ENCODING 38
SWIDTH 583 0
DWIDTH 7 0
BBX 7 10 0 -1
BITMAP
30
48
48
30
20
52
8C
88
88
76
ENDCHAR
STARTCHAR char39
ENCODING 39
SWIDTH 583 0
DWIDTH 7 0
BBX 3 4 2 5
BITMAP
20
20
40
80
ENDCHAR
STARTCHAR char40
ENCODING 40
SWIDTH 583 0
DWIDTH 7 0
BBX 3 11 2 -2
BITMAP
20
40
40
80
80
80
80
80
40
40
20
ENDCHAR
STARTCHAR char41
ENCODING 41
SWIDTH 583 0
DWIDTH 7 0
BBX 3 11 2 -2
BITMAP
80
40
40
20
20
20
20
20
40
40
80
ENDCHAR
STARTCHAR char42
ENCODING 42
SWIDTH 583 0
DWIDTH 7 0
BBX 5 6 1 2
BITMAP
20
A8
70
70
A8
20
ENDCHAR
STARTCHAR char43
ENCODING 43
SWIDTH 583 0
DWIDTH 7 0
BBX 5 5 1 1
BITMAP
20
20
F8
20
20
ENDCHAR
STARTCHAR char44
ENCODING 44
SWIDTH 583 0
DWIDTH 7 0
BBX 3 4 2 -3
BITMAP
60
60
20
C0
ENDCHAR
STARTCHAR char45
ENCODING 45
SWIDTH 583 0
DWIDTH 7 0
BBX 5 1 1 3
BITMAP
F8
ENDCHAR
STARTCHAR char46
ENCODING 46
SWIDTH 583 0
DWIDTH 7 0
BBX 2 2 3 -1
BITMAP
C0
C0
ENDCHAR
STARTCHAR char47
ENCODING 47
SWIDTH 583 0
DWIDTH 7 0
BBX 5 10 1 -1
BITMAP
08
08
10
10
20
20
40
40
80
80
ENDCHAR
STARTCHAR char48
ENCODING 48
SWIDTH 583 0
DWIDTH 7 0
BBX 4 9 2 -1
BITMAP
60
90
90
90
00
90
90
90
60
ENDCHAR
STARTCHAR char49
ENCODING 49
SWIDTH 583 0
DWIDTH 7 0
BBX 1 9 3 -1
BITMAP
80
80
80
80
00
80
80
80
80
ENDCHAR
STARTCHAR char50
ENCODING 50
SWIDTH 583 0
DWIDTH 7 0
BBX 5 9 1 -1
BITMAP
70
08
08
08
70
80
80
80
70
ENDCHAR
STARTCHAR char51
ENCODING 51
SWIDTH 583 0
DWIDTH 7 0
BBX 4 9 2 -1
BITMAP
E0
10
10
10
E0
10
10
10
E0
ENDCHAR
STARTCHAR char52
ENCODING 52
SWIDTH 583 0
DWIDTH 7 0
BBX 5 9 1 -1
BITMAP
88
88
88
88
70
08
08
08
08
ENDCHAR
STARTCHAR char53
ENCODING 53
SWIDTH 583 0
DWIDTH 7 0
BBX 5 9 1 -1
BITMAP
70
80
80
80
70
08
08
08
70
ENDCHAR
STARTCHAR char54
ENCODING 54
SWIDTH 583 0
DWIDTH 7 0
BBX 5 9 1 -1
BITMAP
70
80
80
80
70
88
88
88
70
ENDCHAR
STARTCHAR char55
ENCODING 55
SWIDTH 583 0
DWIDTH 7 0
BBX 4 9 2 -1
BITMAP
E0
10
10
10
00
10
10
10
10
ENDCHAR
STARTCHAR char56
ENCODING 56
SWIDTH 583 0
DWIDTH 7 0
BBX 5 9 1 -1
BITMAP
70
88
88
88
70
88
88
88
70
ENDCHAR
STARTCHAR char57
ENCODING 57
SWIDTH 583 0
DWIDTH 7 0
BBX 5 9 1 -1
BITMAP
70
88
88
88
70
08
08
08
70
ENDCHAR
STARTCHAR char58
ENCODING 58
SWIDTH 583 0
DWIDTH 7 0
BBX 2 7 3 -1
BITMAP
C0
C0
00
00
00
C0
C0
ENDCHAR
STARTCHAR char59
ENCODING 59
SWIDTH 583 0
DWIDTH 7 0
BBX 3 9 2 -3
BITMAP
60
60
00
00
00
60
60
20
C0
ENDCHAR
STARTCHAR char60
ENCODING 60
SWIDTH 583 0
DWIDTH 7 0
BBX 6 11 0 -2
BITMAP
04
08
10
20
40
80
40
20
10
08
04
ENDCHAR
STARTCHAR char61
ENCODING 61
SWIDTH 583 0
DWIDTH 7 0
BBX 5 5 1 1
BITMAP
F8
00
00
00
F8
ENDCHAR
STARTCHAR char62
ENCODING 62
SWIDTH 583 0
DWIDTH 7 0
BBX 6 11 0 -2
BITMAP
80
40
20
10
08
04
08
10
20
40
80
ENDCHAR
STARTCHAR char63
ENCODING 63
SWIDTH 583 0
DWIDTH 7 0
BBX 5 10 1 -1
BITMAP
70
88
88
08
10
20
20
00
00
20
ENDCHAR
STARTCHAR char64
ENCODING 64
SWIDTH 583 0
DWIDTH 7 0
BBX 5 10 1 -1
BITMAP
20
50
88
B8
A8
A8
B8
80
48
30
ENDCHAR
STARTCHAR char65
ENCODING 65
SWIDTH 583 0
DWIDTH 7 0
BBX 5 9 1 -1
BITMAP
20
20
50
50
50
88
F8
88
88
ENDCHAR
STARTCHAR char66
ENCODING 66
SWIDTH 583 0
DWIDTH 7 0
BBX 5 9 1 -1
BITMAP
E0
90
90
90
F0
88
88
88
F0
ENDCHAR
STARTCHAR char67
ENCODING 67
SWIDTH 583 0
DWIDTH 7 0
BBX 5 9 1 -1
BITMAP
70
88
88
80
80
80
88
88
70
ENDCHAR
STARTCHAR char68
ENCODING 68
SWIDTH 583 0
DWIDTH 7 0
BBX 5 9 1 -1
BITMAP
E0
90
88
88
88
88
88
90
E0
ENDCHAR
STARTCHAR char69
ENCODING 69
SWIDTH 583 0
DWIDTH 7 0
BBX 5 9 1 -1
BITMAP
F8
80
80
80
F0
80
80
80
F8
ENDCHAR
STARTCHAR char70
ENCODING 70
SWIDTH 583 0
DWIDTH 7 0
BBX 5 9 1 -1
BITMAP
F8
80
80
80
F0
80
80
80
80
ENDCHAR
STARTCHAR char71
ENCODING 71
SWIDTH 583 0
DWIDTH 7 0
BBX 5 9 1 -1
BITMAP
70
88
80
80
98
88
88
98
68
ENDCHAR
STARTCHAR char72
ENCODING 72
SWIDTH 583 0
DWIDTH 7 0
BBX 5 9 1 -1
BITMAP
88
88
88
88
F8
88
88
88
88
ENDCHAR
STARTCHAR char73
ENCODING 73
SWIDTH 583 0
DWIDTH 7 0
BBX 5 9 1 -1
BITMAP
F8
20
20
20
20
20
20
20
F8
ENDCHAR
STARTCHAR char74
ENCODING 74
SWIDTH 583 0
DWIDTH 7 0
BBX 5 9 1 -1
BITMAP
78
10
10
10
10
10
90
90
60
ENDCHAR
STARTCHAR char75
ENCODING 75
SWIDTH 583 0
DWIDTH 7 0
BBX 5 9 1 -1
BITMAP
88
90
A0
C0
A0
90
90
88
88
ENDCHAR
STARTCHAR char76
ENCODING 76
SWIDTH 583 0
DWIDTH 7 0
BBX 5 9 1 -1
BITMAP
80
80
80
80
80
80
80
80
F8
ENDCHAR
STARTCHAR char77
ENCODING 77
SWIDTH 583 0
DWIDTH 7 0
BBX 6 9 0 -1
BITMAP
84
84
CC
CC
B4
B4
84
84
84
ENDCHAR
STARTCHAR char78
ENCODING 78
SWIDTH 583 0
DWIDTH 7 0
BBX 5 9 1 -1
BITMAP
88
C8
C8
A8
A8
98
98
88
88
ENDCHAR
STARTCHAR char79
ENCODING 79
SWIDTH 583 0
DWIDTH 7 0
BBX 5 9 1 -1
BITMAP
70
88
88
88
88
88
88
88
70
ENDCHAR
STARTCHAR char80
ENCODING 80
SWIDTH 583 0
DWIDTH 7 0
BBX 5 9 1 -1
BITMAP
F0
88
88
88
F0
80
80
80
80
ENDCHAR
STARTCHAR char81
ENCODING 81
SWIDTH 583 0
DWIDTH 7 0
BBX 5 11 1 -3
BITMAP
70
88
88
88
88
88
88
88
70
20
18
ENDCHAR
STARTCHAR char82
ENCODING 82
SWIDTH 583 0
DWIDTH 7 0
BBX 5 9 1 -1
BITMAP
F0
88
88
88
F0
90
88
88
88
ENDCHAR
STARTCHAR char83
ENCODING 83
SWIDTH 583 0
DWIDTH 7 0
BBX 5 9 1 -1
BITMAP
70
88
80
40
30
08
88
88
70
ENDCHAR
STARTCHAR char84
ENCODING 84
SWIDTH 583 0
DWIDTH 7 0
BBX 5 9 1 -1
BITMAP
F8
20
20
20
20
20
20
20
20
ENDCHAR
STARTCHAR char85
ENCODING 85
SWIDTH 583 0
DWIDTH 7 0
BBX 5 9 1 -1
BITMAP
88
88
88
88
88
88
88
88
70
ENDCHAR
STARTCHAR char86
ENCODING 86
SWIDTH 583 0
DWIDTH 7 0
BBX 5 9 1 -1
BITMAP
88
88
88
50
50
50
20
20
20
ENDCHAR
STARTCHAR char87
ENCODING 87
SWIDTH 583 0
DWIDTH 7 0
BBX 7 9 0 -1
BITMAP
82
82
82
92
54
54
54
28
28
ENDCHAR
STARTCHAR char88
ENCODING 88
SWIDTH 583 0
DWIDTH 7 0
BBX 5 9 1 -1
BITMAP
88
88
50
50
20
50
50
88
88
ENDCHAR
STARTCHAR char89
ENCODING 89
SWIDTH 583 0
DWIDTH 7 0
BBX 5 9 1 -1
BITMAP
88
88
88
50
20
20
20
20
20
ENDCHAR
STARTCHAR char90
ENCODING 90
SWIDTH 583 0
DWIDTH 7 0
BBX 5 9 1 -1
BITMAP
F8
08
08
10
20
40
80
80
F8
ENDCHAR
STARTCHAR char91
ENCODING 91
SWIDTH 583 0
DWIDTH 7 0
BBX 4 11 2 -2
BITMAP
F0
80
80
80
80
80
80
80
80
80
F0
ENDCHAR
STARTCHAR char92
ENCODING 92
SWIDTH 583 0
DWIDTH 7 0
BBX 5 10 1 -1
BITMAP
80
80
40
40
20
20
10
10
08
08
ENDCHAR
STARTCHAR char93
ENCODING 93
SWIDTH 583 0
DWIDTH 7 0
BBX 4 11 1 -2
BITMAP
F0
10
10
10
10
10
10
10
10
10
F0
ENDCHAR
STARTCHAR char94
ENCODING 94
SWIDTH 583 0
DWIDTH 7 0
BBX 5 4 1 4
BITMAP
20
70
D8
88
ENDCHAR
STARTCHAR char95
ENCODING 95
SWIDTH 583 0
DWIDTH 7 0
BBX 6 1 0 -2
BITMAP
FC
ENDCHAR
STARTCHAR char96
ENCODING 96
SWIDTH 583 0
DWIDTH 7 0
BBX 3 4 2 5
BITMAP
80
80
40
20
ENDCHAR
STARTCHAR char97
ENCODING 97
SWIDTH 583 0
DWIDTH 7 0
BBX 5 7 1 -1
BITMAP
70
88
08
78
88
88
78
ENDCHAR
STARTCHAR char98
ENCODING 98
SWIDTH 583 0
DWIDTH 7 0
BBX 5 9 1 -1
BITMAP
80
80
B0
C8
88
88
88
C8
B0
ENDCHAR
STARTCHAR char99
ENCODING 99
SWIDTH 583 0
DWIDTH 7 0
BBX 5 7 1 -1
BITMAP
70
88
80
80
80
88
70
ENDCHAR
STARTCHAR char100
ENCODING 100
SWIDTH 583 0
DWIDTH 7 0
BBX 5 9 1 -1
BITMAP
08
08
68
98
88
88
88
98
68
ENDCHAR
STARTCHAR char101
ENCODING 101
SWIDTH 583 0
DWIDTH 7 0
BBX 5 7 1 -1
BITMAP
70
88
88
F8
80
88
70
ENDCHAR
STARTCHAR char102
ENCODING 102
SWIDTH 583 0
DWIDTH 7 0
BBX 5 9 1 -1
BITMAP
18
20
20
F8
20
20
20
20
20
ENDCHAR
STARTCHAR char103
ENCODING 103
SWIDTH 583 0
DWIDTH 7 0
BBX 5 10 1 -4
BITMAP
68
98
88
88
88
98
68
08
88
70
ENDCHAR
STARTCHAR char104
ENCODING 104
SWIDTH 583 0
DWIDTH 7 0
BBX 5 9 1 -1
BITMAP
80
80
B0
C8
88
88
88
88
88
ENDCHAR
STARTCHAR char105
ENCODING 105
SWIDTH 583 0
DWIDTH 7 0
BBX 3 9 2 -1
BITMAP
20
00
E0
20
20
20
20
20
20
ENDCHAR
STARTCHAR char106
ENCODING 106
SWIDTH 583 0
DWIDTH 7 0
BBX 4 12 1 -4
BITMAP
10
00
70
10
10
10
10
10
10
10
90
60
ENDCHAR
STARTCHAR char107
ENCODING 107
SWIDTH 583 0
DWIDTH 7 0
BBX 5 9 1 -1
BITMAP
80
80
90
A0
C0
C0
A0
90
88
ENDCHAR
STARTCHAR char108
ENCODING 108
SWIDTH 583 0
DWIDTH 7 0
BBX 3 9 2 -1
BITMAP
E0
20
20
20
20
20
20
20
20
ENDCHAR
STARTCHAR char109
ENCODING 109
SWIDTH 583 0
DWIDTH 7 0
BBX 5 7 1 -1
BITMAP
D0
A8
A8
A8
A8
A8
A8
ENDCHAR
STARTCHAR char110
ENCODING 110
SWIDTH 583 0
DWIDTH 7 0
BBX 5 7 1 -1
BITMAP
B0
C8
88
88
88
88
88
ENDCHAR
STARTCHAR char111
ENCODING 111
SWIDTH 583 0
DWIDTH 7 0
BBX 5 7 1 -1
BITMAP
70
88
88
88
88
88
70
ENDCHAR
STARTCHAR char112
ENCODING 112
SWIDTH 583 0
DWIDTH 7 0
BBX 5 10 1 -4
BITMAP
B0
C8
88
88
88
C8
B0
80
80
80
ENDCHAR
STARTCHAR char113
ENCODING 113
SWIDTH 583 0
DWIDTH 7 0
BBX 5 10 1 -4
BITMAP
68
98
88
88
88
98
68
08
08
08
ENDCHAR
STARTCHAR char114
ENCODING 114
SWIDTH 583 0
DWIDTH 7 0
BBX 5 7 1 -1
BITMAP
B0
C8
80
80
80
80
80
ENDCHAR
STARTCHAR char115
ENCODING 115
SWIDTH 583 0
DWIDTH 7 0
BBX 5 7 1 -1
BITMAP
70
88
80
70
08
88
70
ENDCHAR
STARTCHAR char116
ENCODING 116
SWIDTH 583 0
DWIDTH 7 0
BBX 5 9 1 -1
BITMAP
20
20
F8
20
20
20
20
20
18
ENDCHAR
STARTCHAR char117
ENCODING 117
SWIDTH 583 0
DWIDTH 7 0
BBX 5 7 1 -1
BITMAP
88
88
88
88
88
98
68
ENDCHAR
STARTCHAR char118
ENCODING 118
SWIDTH 583 0
DWIDTH 7 0
BBX 5 7 1 -1
BITMAP
88
88
88
50
50
20
20
ENDCHAR
STARTCHAR char119
ENCODING 119
SWIDTH 583 0
DWIDTH 7 0
BBX 5 7 1 -1
BITMAP
88
88
A8
A8
A8
A8
50
ENDCHAR
STARTCHAR char120
ENCODING 120
SWIDTH 583 0
DWIDTH 7 0
BBX 5 7 1 -1
BITMAP
88
88
50
20
50
88
88
ENDCHAR
STARTCHAR char121
ENCODING 121
SWIDTH 583 0
DWIDTH 7 0
BBX 5 10 1 -4
BITMAP
88
88
48
48
28
30
10
10
A0
40
ENDCHAR
STARTCHAR char122
ENCODING 122
SWIDTH 583 0
DWIDTH 7 0
BBX 5 7 1 -1
BITMAP
F8
08
10
20
40
80
F8
ENDCHAR
STARTCHAR char123
ENCODING 123
SWIDTH 583 0
DWIDTH 7 0
BBX 5 13 1 -3
BITMAP
18
20
20
20
20
20
C0
20
20
20
20
20
18
ENDCHAR
STARTCHAR char124
ENCODING 124
SWIDTH 583 0
DWIDTH 7 0
BBX 1 13 3 -3
BITMAP
80
80
80
80
80
80
80
80
80
80
80
80
80
ENDCHAR
STARTCHAR char125
ENCODING 125
SWIDTH 583 0
DWIDTH 7 0
BBX 5 13 1 -3
BITMAP
C0
20
20
20
20
20
18
20
20
20
20
20
C0
ENDCHAR
STARTCHAR char126
ENCODING 126
SWIDTH 583 0
DWIDTH 7 0
BBX 5 3 1 5
BITMAP
48
A8
90
ENDCHAR
STARTCHAR char128
ENCODING 128
SWIDTH 583 0
DWIDTH 7 0
BBX 7 1 0 3
BITMAP
FE
ENDCHAR
STARTCHAR char129
ENCODING 129
SWIDTH 583 0
DWIDTH 7 0
BBX 1 14 3 -4
BITMAP
80
80
80
80
80
80
80
80
80
80
80
80
80
80
ENDCHAR
STARTCHAR char130
ENCODING 130
SWIDTH 583 0
DWIDTH 7 0
BBX 4 8 3 -4
BITMAP
F0
80
80
80
80
80
80
80
ENDCHAR
STARTCHAR char130
ENCODING 131
SWIDTH 583 0
DWIDTH 7 0
BBX 4 8 0 -4
BITMAP
F0
10
10
10
10
10
10
10
ENDCHAR
STARTCHAR char130
ENCODING 132
SWIDTH 583 0
DWIDTH 7 0
BBX 4 8 3 2
BITMAP
80
80
80
80
80
80
80
F0
ENDCHAR
STARTCHAR char130
ENCODING 133
SWIDTH 583 0
DWIDTH 7 0
BBX 4 8 0 2
BITMAP
10
10
10
10
10
10
10
F0
ENDCHAR
STARTCHAR char130
ENCODING 134
SWIDTH 583 0
DWIDTH 7 0
BBX 4 14 3 -4
BITMAP
80
80
80
80
80
80
F0
80
80
80
80
80
80
80
ENDCHAR
STARTCHAR char130
ENCODING 135
SWIDTH 583 0
DWIDTH 7 0
BBX 4 14 0 -4
BITMAP
10
10
10
10
10
10
F0
10
10
10
10
10
10
10
ENDCHAR
STARTCHAR char130
ENCODING 136
SWIDTH 583 0
DWIDTH 7 0
BBX 7 7 0 -4
BITMAP
FE
10
10
10
10
10
10
ENDCHAR
STARTCHAR char130
ENCODING 137
SWIDTH 583 0
DWIDTH 7 0
BBX 7 8 0 2
BITMAP
10
10
10
10
10
10
10
FE
ENDCHAR
STARTCHAR char130
ENCODING 138
SWIDTH 583 0
DWIDTH 7 0
BBX 7 14 0 -4
BITMAP
10
10
10
10
10
10
FE
10
10
10
10
10
10
10
ENDCHAR
STARTCHAR char130
ENCODING 139
SWIDTH 583 0
DWIDTH 7 0
BBX 7 7 0 3
BITMAP
FE
FE
FE
FE
FE
FE
FE
ENDCHAR
STARTCHAR char130
ENCODING 140
SWIDTH 583 0
DWIDTH 7 0
BBX 7 7 0 -4
BITMAP
FE
FE
FE
FE
FE
FE
FE
ENDCHAR
STARTCHAR char130
ENCODING 141
SWIDTH 583 0
DWIDTH 7 0
BBX 7 14 0 -4
BITMAP
FE
FE
FE
FE
FE
FE
FE
FE
FE
FE
FE
FE
FE
FE
ENDCHAR
STARTCHAR char130
ENCODING 142
SWIDTH 583 0
DWIDTH 7 0
BBX 3 14 0 -4
BITMAP
E0
E0
E0
E0
E0
E0
E0
E0
E0
E0
E0
E0
E0
E0
ENDCHAR
STARTCHAR char130
ENCODING 143
SWIDTH 583 0
DWIDTH 7 0
BBX 3 14 4 -4
BITMAP
E0
E0
E0
E0
E0
E0
E0
E0
E0
E0
E0
E0
E0
E0
ENDCHAR
STARTCHAR char130
ENCODING 144
SWIDTH 583 0
DWIDTH 7 0
BBX 7 14 0 -4
BITMAP
22
88
22
88
22
88
22
88
22
88
22
88
22
88
ENDCHAR
STARTCHAR char130
ENCODING 145
SWIDTH 583 0
DWIDTH 7 0
BBX 7 14 0 -4
BITMAP
54
AA
54
AA
54
AA
54
AA
54
AA
54
AA
54
AA
ENDCHAR
STARTCHAR char130
ENCODING 146
SWIDTH 583 0
DWIDTH 7 0
BBX 7 14 0 -4
BITMAP
DC
BA
DC
BA
DC
BA
DC
BA
DC
BA
DC
BA
DC
BA
ENDCHAR
STARTCHAR char183
ENCODING 148
SWIDTH 583 0
DWIDTH 7 0
BBX 4 4 2 3
BITMAP
60
F0
F0
60
ENDCHAR
STARTCHAR char176
ENCODING 156
SWIDTH 583 0
DWIDTH 7 0
BBX 4 4 2 6
BITMAP
60
90
90
60
ENDCHAR
STARTCHAR char178
ENCODING 157
SWIDTH 583 0
DWIDTH 7 0
BBX 3 5 3 5
BITMAP
C0
20
20
40
E0
ENDCHAR
STARTCHAR char160
ENCODING 160
SWIDTH 583 0
DWIDTH 7 0
BBX 0 0 0 0
BITMAP
ENDCHAR
STARTCHAR char161
ENCODING 161
SWIDTH 583 0
DWIDTH 7 0
BBX 1 10 3 -1
BITMAP
80
00
00
80
80
80
80
80
80
80
ENDCHAR
STARTCHAR char162
ENCODING 162
SWIDTH 583 0
DWIDTH 7 0
BBX 5 11 1 -2
BITMAP
20
20
70
A8
A0
A0
A0
A8
70
20
20
ENDCHAR
STARTCHAR char163
ENCODING 163
SWIDTH 583 0
DWIDTH 7 0
BBX 6 10 0 -1
BITMAP
18
20
20
20
F8
20
20
20
60
FC
ENDCHAR
STARTCHAR char164
ENCODING 164
SWIDTH 583 0
DWIDTH 7 0
BBX 7 8 0 1
BITMAP
82
7C
44
44
44
44
7C
82
ENDCHAR
STARTCHAR char165
ENCODING 165
SWIDTH 583 0
DWIDTH 7 0
BBX 5 9 1 -1
BITMAP
88
88
88
50
20
20
F8
20
20
ENDCHAR
STARTCHAR char166
ENCODING 166
SWIDTH 583 0
DWIDTH 7 0
BBX 1 13 3 -3
BITMAP
80
80
80
80
80
80
00
80
80
80
80
80
80
ENDCHAR
STARTCHAR char167
ENCODING 167
SWIDTH 583 0
DWIDTH 7 0
BBX 5 11 1 -1
BITMAP
70
88
80
70
88
88
88
70
08
88
70
ENDCHAR
STARTCHAR char168
ENCODING 168
SWIDTH 583 0
DWIDTH 7 0
BBX 5 2 1 6
BITMAP
88
88
ENDCHAR
STARTCHAR char169
ENCODING 169
SWIDTH 583 0
DWIDTH 7 0
BBX 7 9 0 -1
BITMAP
7C
82
BA
A2
A2
A2
BA
82
7C
ENDCHAR
STARTCHAR char170
ENCODING 170
SWIDTH 583 0
DWIDTH 7 0
BBX 4 7 2 3
BITMAP
60
10
70
90
70
00
F0
ENDCHAR
STARTCHAR char171
ENCODING 171
SWIDTH 583 0
DWIDTH 7 0
BBX 6 9 0 0
BITMAP
24
28
48
50
90
50
48
28
24
ENDCHAR
STARTCHAR char172
ENCODING 172
SWIDTH 583 0
DWIDTH 7 0
BBX 5 3 1 5
BITMAP
F8
08
08
ENDCHAR
STARTCHAR char173
ENCODING 173
SWIDTH 583 0
DWIDTH 7 0
BBX 5 1 1 3
BITMAP
F8
ENDCHAR
STARTCHAR char174
ENCODING 174
SWIDTH 583 0
DWIDTH 7 0
BBX 7 9 0 -1
BITMAP
7C
82
BA
AA
BA
AA
AA
82
7C
ENDCHAR
STARTCHAR char175
ENCODING 175
SWIDTH 583 0
DWIDTH 7 0
BBX 5 1 1 7
BITMAP
F8
ENDCHAR
STARTCHAR char176
ENCODING 176
SWIDTH 583 0
DWIDTH 7 0
BBX 4 4 2 6
BITMAP
60
90
90
60
ENDCHAR
STARTCHAR char177
ENCODING 177
SWIDTH 583 0
DWIDTH 7 0
BBX 5 7 1 0
BITMAP
20
20
F8
20
20
00
F8
ENDCHAR
STARTCHAR char178
ENCODING 178
SWIDTH 583 0
DWIDTH 7 0
BBX 3 5 3 5
BITMAP
C0
20
20
40
E0
ENDCHAR
STARTCHAR char203
ENCODING 179
SWIDTH 583 0
DWIDTH 7 0
BBX 5 11 1 -1
BITMAP
88
88
00
F8
80
80
F0
80
80
80
F8
ENDCHAR
STARTCHAR char180
ENCODING 180
SWIDTH 583 0
DWIDTH 7 0
BBX 4 4 2 6
BITMAP
10
20
40
80
ENDCHAR
STARTCHAR char181
ENCODING 181
SWIDTH 583 0
DWIDTH 7 0
BBX 6 9 1 -2
BITMAP
88
88
88
88
88
88
98
E4
80
ENDCHAR
STARTCHAR char182
ENCODING 182
SWIDTH 583 0
DWIDTH 7 0
BBX 6 10 1 0
BITMAP
7C
E8
E8
E8
E8
78
28
28
28
28
ENDCHAR
STARTCHAR char183
ENCODING 183
SWIDTH 583 0
DWIDTH 7 0
BBX 4 4 2 3
BITMAP
60
F0
F0
60
ENDCHAR
STARTCHAR char184
ENCODING 184
SWIDTH 583 0
DWIDTH 7 0
BBX 4 4 2 -4
BITMAP
40
60
10
E0
ENDCHAR
STARTCHAR char185
ENCODING 185
SWIDTH 583 0
DWIDTH 7 0
BBX 3 5 3 5
BITMAP
40
C0
40
40
E0
ENDCHAR
STARTCHAR char186
ENCODING 186
SWIDTH 583 0
DWIDTH 7 0
BBX 4 7 2 3
BITMAP
60
90
90
90
60
00
F0
ENDCHAR
STARTCHAR char187
ENCODING 187
SWIDTH 583 0
DWIDTH 7 0
BBX 6 9 0 0
BITMAP
90
50
48
28
24
28
48
50
90
ENDCHAR
STARTCHAR char188
ENCODING 188
SWIDTH 583 0
DWIDTH 7 0
BBX 6 11 0 -1
BITMAP
40
C4
44
48
E8
10
24
28
54
5C
84
ENDCHAR
STARTCHAR char189
ENCODING 189
SWIDTH 583 0
DWIDTH 7 0
BBX 6 11 0 -1
BITMAP
40
C4
44
48
E8
10
28
34
44
48
9C
ENDCHAR
STARTCHAR char190
ENCODING 190
SWIDTH 583 0
DWIDTH 7 0
BBX 6 11 0 -1
BITMAP
C0
24
C4
28
C8
10
24
28
54
5C
84
ENDCHAR
STARTCHAR char169
ENCODING 191
SWIDTH 583 0
DWIDTH 7 0
BBX 7 9 0 -1
BITMAP
7C
82
BA
A2
A2
A2
BA
82
7C
ENDCHAR
STARTCHAR char111
ENCODING 192
SWIDTH 583 0
DWIDTH 7 0
BBX 6 7 1 -1
BITMAP
98
A4
A4
E4
A4
A4
98
ENDCHAR
STARTCHAR char97
ENCODING 193
SWIDTH 583 0
DWIDTH 7 0
BBX 5 7 1 -1
BITMAP
70
88
08
78
88
88
78
ENDCHAR
STARTCHAR char98
ENCODING 194
SWIDTH 583 0
DWIDTH 7 0
BBX 5 9 1 -1
BITMAP
70
80
80
70
88
88
88
88
70
ENDCHAR
STARTCHAR char117
ENCODING 195
SWIDTH 583 0
DWIDTH 7 0
BBX 6 8 1 -2
BITMAP
88
88
88
88
88
98
6C
04
ENDCHAR
STARTCHAR char98
ENCODING 196
SWIDTH 583 0
DWIDTH 7 0
BBX 5 9 1 -1
BITMAP
70
08
08
70
88
88
88
88
70
ENDCHAR
STARTCHAR char101
ENCODING 197
SWIDTH 583 0
DWIDTH 7 0
BBX 5 7 1 -1
BITMAP
70
88
88
F8
80
88
70
ENDCHAR
STARTCHAR char111
ENCODING 198
SWIDTH 583 0
DWIDTH 7 0
BBX 7 8 0 -2
BITMAP
7C
92
92
92
92
92
7C
10
ENDCHAR
STARTCHAR char115
ENCODING 199
SWIDTH 583 0
DWIDTH 7 0
BBX 5 7 1 -1
BITMAP
70
88
08
70
80
88
70
ENDCHAR
STARTCHAR char120
ENCODING 200
SWIDTH 583 0
DWIDTH 7 0
BBX 5 7 1 -1
BITMAP
88
88
50
20
50
88
88
ENDCHAR
STARTCHAR char117
ENCODING 201
SWIDTH 583 0
DWIDTH 7 0
BBX 5 7 1 -1
BITMAP
88
88
88
88
88
98
68
ENDCHAR
STARTCHAR char117
ENCODING 202
SWIDTH 583 0
DWIDTH 7 0
BBX 5 9 1 -1
BITMAP
50
20
88
88
88
88
88
98
68
ENDCHAR
STARTCHAR char107
ENCODING 203
SWIDTH 583 0
DWIDTH 7 0
BBX 5 7 1 -1
BITMAP
90
A0
C0
C0
A0
90
88
ENDCHAR
STARTCHAR char110
ENCODING 204
SWIDTH 583 0
DWIDTH 7 0
BBX 5 7 1 -1
BITMAP
30
48
48
48
48
48
C8
ENDCHAR
STARTCHAR char109
ENCODING 205
SWIDTH 583 0
DWIDTH 7 0
BBX 5 7 1 -1
BITMAP
D8
A8
A8
88
88
88
88
ENDCHAR
STARTCHAR char110
ENCODING 206
SWIDTH 583 0
DWIDTH 7 0
BBX 5 7 1 -1
BITMAP
88
88
88
F8
88
88
88
ENDCHAR
STARTCHAR char111
ENCODING 207
SWIDTH 583 0
DWIDTH 7 0
BBX 5 7 1 -1
BITMAP
70
88
88
88
88
88
70
ENDCHAR
STARTCHAR char110
ENCODING 208
SWIDTH 583 0
DWIDTH 7 0
BBX 5 7 1 -1
BITMAP
F8
88
88
88
88
88
88
ENDCHAR
STARTCHAR char97
ENCODING 209
SWIDTH 583 0
DWIDTH 7 0
BBX 5 7 1 -1
BITMAP
70
88
88
78
48
48
88
ENDCHAR
STARTCHAR char112
ENCODING 210
SWIDTH 583 0
DWIDTH 7 0
BBX 5 10 1 -4
BITMAP
B0
C8
88
88
88
C8
B0
80
80
80
ENDCHAR
STARTCHAR char99
ENCODING 211
SWIDTH 583 0
DWIDTH 7 0
BBX 5 7 1 -1
BITMAP
70
88
80
80
80
88
70
ENDCHAR
STARTCHAR char105
ENCODING 212
SWIDTH 583 0
DWIDTH 7 0
BBX 5 7 1 -1
BITMAP
F8
20
20
20
20
20
20
ENDCHAR
STARTCHAR char253
ENCODING 213
SWIDTH 583 0
DWIDTH 7 0
BBX 5 10 1 -4
BITMAP
88
88
48
48
28
30
10
10
A0
40
ENDCHAR
STARTCHAR char120
ENCODING 214
SWIDTH 583 0
DWIDTH 7 0
BBX 7 7 0 -1
BITMAP
92
92
54
38
54
92
92
ENDCHAR
STARTCHAR char98
ENCODING 215
SWIDTH 583 0
DWIDTH 7 0
BBX 5 7 1 -1
BITMAP
60
90
B0
C8
88
88
70
ENDCHAR
STARTCHAR char98
ENCODING 216
SWIDTH 583 0
DWIDTH 7 0
BBX 5 7 1 -1
BITMAP
80
80
B0
C8
88
88
70
ENDCHAR
STARTCHAR char98
ENCODING 217
SWIDTH 583 0
DWIDTH 7 0
BBX 6 7 1 -1
BITMAP
84
84
A4
D4
94
94
74
ENDCHAR
STARTCHAR char97
ENCODING 218
SWIDTH 583 0
DWIDTH 7 0
BBX 5 7 1 -1
BITMAP
70
88
08
70
08
88
70
ENDCHAR
STARTCHAR char109
ENCODING 219
SWIDTH 583 0
DWIDTH 7 0
BBX 5 7 1 -1
BITMAP
A8
A8
A8
A8
A8
A8
58
ENDCHAR
STARTCHAR char97
ENCODING 220
SWIDTH 583 0
DWIDTH 7 0
BBX 5 7 1 -1
BITMAP
F0
08
08
78
08
08
F0
ENDCHAR
STARTCHAR char109
ENCODING 221
SWIDTH 583 0
DWIDTH 7 0
BBX 6 8 1 -2
BITMAP
A8
A8
A8
A8
A8
A8
5C
04
ENDCHAR
STARTCHAR char110
ENCODING 222
SWIDTH 583 0
DWIDTH 7 0
BBX 5 7 1 -1
BITMAP
88
88
88
78
08
08
08
ENDCHAR
STARTCHAR char98
ENCODING 223
SWIDTH 583 0
DWIDTH 7 0
BBX 6 7 0 -1
BITMAP
C0
40
58
64
44
44
38
ENDCHAR
STARTCHAR char79
ENCODING 224
SWIDTH 583 0
DWIDTH 7 0
BBX 6 9 0 -1
BITMAP
98
A4
A4
A4
E4
A4
A4
A4
98
ENDCHAR
STARTCHAR char65
ENCODING 225
SWIDTH 583 0
DWIDTH 7 0
BBX 5 9 1 -1
BITMAP
20
20
50
50
50
88
F8
88
88
ENDCHAR
STARTCHAR char66
ENCODING 226
SWIDTH 583 0
DWIDTH 7 0
BBX 5 9 1 -1
BITMAP
F0
80
80
80
F0
88
88
88
F0
ENDCHAR
STARTCHAR char72
ENCODING 227
SWIDTH 583 0
DWIDTH 7 0
BBX 6 10 1 -2
BITMAP
88
88
88
88
88
88
88
88
FC
04
ENDCHAR
STARTCHAR char72
ENCODING 228
SWIDTH 583 0
DWIDTH 7 0
BBX 7 10 0 -2
BITMAP
0C
14
24
44
44
44
44
44
FE
02
ENDCHAR
STARTCHAR char69
ENCODING 229
SWIDTH 583 0
DWIDTH 7 0
BBX 5 9 1 -1
BITMAP
F8
80
80
80
F0
80
80
80
F8
ENDCHAR
STARTCHAR char80
ENCODING 230
SWIDTH 583 0
DWIDTH 7 0
BBX 7 9 0 -1
BITMAP
7C
92
92
92
92
7C
10
10
10
ENDCHAR
STARTCHAR char72
ENCODING 231
SWIDTH 583 0
DWIDTH 7 0
BBX 5 9 1 -1
BITMAP
F8
80
80
80
80
80
80
80
80
ENDCHAR
STARTCHAR char88
ENCODING 232
SWIDTH 583 0
DWIDTH 7 0
BBX 5 9 1 -1
BITMAP
88
88
50
50
20
50
50
88
88
ENDCHAR
STARTCHAR char72
ENCODING 233
SWIDTH 583 0
DWIDTH 7 0
BBX 5 9 1 -1
BITMAP
88
88
88
98
A8
A8
C8
88
88
ENDCHAR
STARTCHAR char72
ENCODING 234
SWIDTH 583 0
DWIDTH 7 0
BBX 5 10 1 -1
BITMAP
20
A8
88
88
98
A8
A8
C8
88
88
ENDCHAR
STARTCHAR char75
ENCODING 235
SWIDTH 583 0
DWIDTH 7 0
BBX 5 9 1 -1
BITMAP
88
90
A0
C0
A0
90
90
88
88
ENDCHAR
STARTCHAR char72
ENCODING 236
SWIDTH 583 0
DWIDTH 7 0
BBX 5 9 1 -1
BITMAP
18
28
48
88
88
88
88
88
88
ENDCHAR
STARTCHAR char77
ENCODING 237
SWIDTH 583 0
DWIDTH 7 0
BBX 6 9 0 -1
BITMAP
84
84
CC
CC
B4
B4
84
84
84
ENDCHAR
STARTCHAR char72
ENCODING 238
SWIDTH 583 0
DWIDTH 7 0
BBX 5 9 1 -1
BITMAP
88
88
88
88
F8
88
88
88
88
ENDCHAR
STARTCHAR char79
ENCODING 239
SWIDTH 583 0
DWIDTH 7 0
BBX 5 9 1 -1
BITMAP
70
88
88
88
88
88
88
88
70
ENDCHAR
STARTCHAR char72
ENCODING 240
SWIDTH 583 0
DWIDTH 7 0
BBX 5 9 1 -1
BITMAP
F8
88
88
88
88
88
88
88
88
ENDCHAR
STARTCHAR char82
ENCODING 241
SWIDTH 583 0
DWIDTH 7 0
BBX 5 9 1 -1
BITMAP
78
88
88
88
78
48
88
88
88
ENDCHAR
STARTCHAR char80
ENCODING 242
SWIDTH 583 0
DWIDTH 7 0
BBX 5 9 1 -1
BITMAP
F0
88
88
88
F0
80
80
80
80
ENDCHAR
STARTCHAR char67
ENCODING 243
SWIDTH 583 0
DWIDTH 7 0
BBX 5 9 1 -1
BITMAP
70
88
88
80
80
80
88
88
70
ENDCHAR
STARTCHAR char84
ENCODING 244
SWIDTH 583 0
DWIDTH 7 0
BBX 5 9 1 -1
BITMAP
F8
20
20
20
20
20
20
20
20
ENDCHAR
STARTCHAR char82
ENCODING 245
SWIDTH 583 0
DWIDTH 7 0
BBX 5 9 1 -1
BITMAP
88
88
88
88
78
08
08
08
70
ENDCHAR
STARTCHAR char88
ENCODING 246
SWIDTH 583 0
DWIDTH 7 0
BBX 7 9 0 -1
BITMAP
92
92
54
54
38
54
54
92
92
ENDCHAR
STARTCHAR char66
ENCODING 247
SWIDTH 583 0
DWIDTH 7 0
BBX 5 9 1 -1
BITMAP
E0
90
90
90
F0
88
88
88
F0
ENDCHAR
STARTCHAR char66
ENCODING 248
SWIDTH 583 0
DWIDTH 7 0
BBX 5 9 1 -1
BITMAP
80
80
80
80
F0
88
88
88
F0
ENDCHAR
STARTCHAR char66
ENCODING 249
SWIDTH 583 0
DWIDTH 7 0
BBX 6 9 1 -1
BITMAP
84
84
84
84
E4
94
94
94
E4
ENDCHAR
STARTCHAR char66
ENCODING 250
SWIDTH 583 0
DWIDTH 7 0
BBX 5 9 1 -1
BITMAP
E0
10
10
10
70
08
08
08
F0
ENDCHAR
STARTCHAR char72
ENCODING 251
SWIDTH 583 0
DWIDTH 7 0
BBX 5 9 1 -1
BITMAP
A8
A8
A8
A8
A8
A8
A8
A8
F8
ENDCHAR
STARTCHAR char66
ENCODING 252
SWIDTH 583 0
DWIDTH 7 0
BBX 5 9 1 -1
BITMAP
F0
08
08
08
78
08
08
08
F0
ENDCHAR
STARTCHAR char72
ENCODING 253
SWIDTH 583 0
DWIDTH 7 0
BBX 6 10 1 -2
BITMAP
A8
A8
A8
A8
A8
A8
A8
A8
FC
04
ENDCHAR
STARTCHAR char82
ENCODING 254
SWIDTH 583 0
DWIDTH 7 0
BBX 5 9 1 -1
BITMAP
88
88
88
88
78
08
08
08
08
ENDCHAR
STARTCHAR char66
ENCODING 255
SWIDTH 583 0
DWIDTH 7 0
BBX 6 9 0 -1
BITMAP
C0
C0
40
40
78
44
44
44
78
ENDCHAR
ENDFONT
